<svg width="25" height="25" viewBox="0 0 25 25" fill="none" xmlns="http://www.w3.org/2000/svg">
<g filter="url(#filter0_d_61_42)">
<path d="M19.5533 15.959L19.5529 15.9588L12.8744 13.2626L12.5 13.1115L12.1256 13.2626L5.44707 15.9588L5.44672 15.959C5.3894 15.9821 5.30817 16 5.21429 16C5.12992 16 5.05577 15.9856 5 15.9658V2.55087C5.0006 2.27778 5.15563 1.90696 5.6415 1.56686C6.13099 1.22421 6.84894 1.00062 7.64323 1H17.3568C18.1511 1.00062 18.869 1.22421 19.3585 1.56686C19.8442 1.90681 19.9993 2.27745 20 2.55051C20 2.55081 20 2.55112 20 2.55143L20 15.9658C19.9492 15.9839 19.8765 16 19.7857 16C19.6919 16 19.6106 15.9821 19.5533 15.959Z" stroke="#E9CDB3" stroke-width="2" shape-rendering="crispEdges"/>
</g>
<defs>
<filter id="filter0_d_61_42" x="0" y="0" width="25" height="25" filterUnits="userSpaceOnUse" color-interpolation-filters="sRGB">
<feFlood flood-opacity="0" result="BackgroundImageFix"/>
<feColorMatrix in="SourceAlpha" type="matrix" values="0 0 0 0 0 0 0 0 0 0 0 0 0 0 0 0 0 0 127 0" result="hardAlpha"/>
<feOffset dy="4"/>
<feGaussianBlur stdDeviation="2"/>
<feComposite in2="hardAlpha" operator="out"/>
<feColorMatrix type="matrix" values="0 0 0 0 0 0 0 0 0 0 0 0 0 0 0 0 0 0 0.25 0"/>
<feBlend mode="normal" in2="BackgroundImageFix" result="effect1_dropShadow_61_42"/>
<feBlend mode="normal" in="SourceGraphic" in2="effect1_dropShadow_61_42" result="shape"/>
</filter>
</defs>
</svg>
