<svg width="24" height="23" viewBox="0 0 24 23" fill="none" xmlns="http://www.w3.org/2000/svg">
<path d="M0.336987 21.061L4.78634 16.8283C3.05925 14.763 2.22286 12.1416 2.44916 9.5031C2.67546 6.86457 3.94724 4.40946 6.00299 2.64261C8.05875 0.875762 10.7422 -0.0685392 13.5017 0.00387725C16.2611 0.0762937 18.8867 1.15992 20.8386 3.03195C22.7906 4.90398 23.9204 7.42211 23.996 10.0686C24.0715 12.715 23.0869 15.2886 21.2446 17.2602C19.4023 19.2318 16.8424 20.4515 14.0913 20.6686C11.3401 20.8856 8.60678 20.0835 6.45335 18.4271L2.03997 22.6598C1.92848 22.7676 1.79584 22.8531 1.6497 22.9115C1.50355 22.9699 1.3468 23 1.18848 23C1.03016 23 0.873405 22.9699 0.727262 22.9115C0.581118 22.8531 0.448477 22.7676 0.336987 22.6598C0.120829 22.4453 -1.90735e-06 22.1587 -1.90735e-06 21.8604C-1.90735e-06 21.5621 0.120829 21.2755 0.336987 21.061ZM13.1814 18.4271C14.8417 18.4271 16.4648 17.9549 17.8454 17.0702C19.2259 16.1855 20.3019 14.928 20.9373 13.4569C21.5727 11.9857 21.739 10.3668 21.4151 8.80501C21.0911 7.24321 20.2916 5.8086 19.1175 4.6826C17.9435 3.5566 16.4476 2.78979 14.8191 2.47912C13.1907 2.16846 11.5027 2.3279 9.96872 2.93729C8.43473 3.54668 7.12361 4.57864 6.20115 5.90267C5.2787 7.2267 4.78634 8.78335 4.78634 10.3757C4.78634 12.5111 5.67081 14.559 7.24518 16.0689C8.81955 17.5788 10.9549 18.4271 13.1814 18.4271Z" fill="#E9CDB3"/>
</svg>
