<svg width="91" height="80" viewBox="0 0 91 80" fill="none" xmlns="http://www.w3.org/2000/svg">
<path d="M81.9 45.2444V35.5556C81.9 26.1256 78.065 17.0819 71.2387 10.414C64.4124 3.74602 55.1539 0 45.5 0C35.8461 0 26.5876 3.74602 19.7613 10.414C12.935 17.0819 9.1 26.1256 9.1 35.5556V45.2444C6.44485 46.1614 4.14504 47.8581 2.51587 50.1019C0.886697 52.3458 0.00791478 55.0269 0 57.7778V66.6667C0 70.2029 1.43812 73.5943 3.99799 76.0948C6.55786 78.5952 10.0298 80 13.65 80H27.3C28.5067 80 29.664 79.5318 30.5173 78.6983C31.3706 77.8648 31.85 76.7343 31.85 75.5556V48.8889C31.85 47.7102 31.3706 46.5797 30.5173 45.7462C29.664 44.9127 28.5067 44.4444 27.3 44.4444H18.2V35.5556C18.2 28.4831 21.0762 21.7003 26.196 16.6994C31.3157 11.6984 38.2596 8.88889 45.5 8.88889C52.7404 8.88889 59.6843 11.6984 64.804 16.6994C69.9238 21.7003 72.8 28.4831 72.8 35.5556V44.4444H63.7C62.4933 44.4444 61.336 44.9127 60.4827 45.7462C59.6294 46.5797 59.15 47.7102 59.15 48.8889V75.5556C59.15 76.7343 59.6294 77.8648 60.4827 78.6983C61.336 79.5318 62.4933 80 63.7 80H77.35C80.9702 80 84.4421 78.5952 87.002 76.0948C89.5619 73.5943 91 70.2029 91 66.6667V57.7778C90.9921 55.0269 90.1133 52.3458 88.4841 50.1019C86.855 47.8581 84.5552 46.1614 81.9 45.2444ZM22.75 53.3333V71.1111H13.65C12.4433 71.1111 11.286 70.6429 10.4327 69.8094C9.57938 68.9759 9.1 67.8454 9.1 66.6667V57.7778C9.1 56.599 9.57938 55.4686 10.4327 54.6351C11.286 53.8016 12.4433 53.3333 13.65 53.3333H22.75ZM81.9 66.6667C81.9 67.8454 81.4206 68.9759 80.5673 69.8094C79.7141 70.6429 78.5567 71.1111 77.35 71.1111H68.25V53.3333H77.35C78.5567 53.3333 79.7141 53.8016 80.5673 54.6351C81.4206 55.4686 81.9 56.599 81.9 57.7778V66.6667Z" fill="black"/>
</svg>
