<svg width="17" height="17" viewBox="0 0 17 17" fill="none" xmlns="http://www.w3.org/2000/svg">
<path d="M15.5533 15.959L15.5529 15.9588L8.87435 13.2626L8.5 13.1115L8.12565 13.2626L1.44707 15.9588L1.44672 15.959C1.3894 15.9821 1.30817 16 1.21429 16C1.12992 16 1.05577 15.9856 1 15.9658V2.55087C1.0006 2.27778 1.15563 1.90696 1.6415 1.56686C2.13099 1.22421 2.84894 1.00062 3.64323 1H13.3568C14.1511 1.00062 14.869 1.22421 15.3585 1.56686C15.8442 1.90681 15.9993 2.27745 16 2.55051C16 2.55081 16 2.55112 16 2.55143L16 15.9658C15.9492 15.9839 15.8765 16 15.7857 16C15.6919 16 15.6106 15.9821 15.5533 15.959Z" stroke="#E9CDB3" stroke-width="2"/>
</svg>
