<svg width="6" height="6" viewBox="0 0 6 6" fill="none" xmlns="http://www.w3.org/2000/svg">
<path d="M3.37165 0.445142L3.8385 1.5165C3.90245 1.66354 4.07808 1.81207 4.22883 1.84192L5.12526 2.03209C5.69931 2.15253 5.81882 2.59966 5.39333 3.02561L4.6687 3.74693C4.5477 3.86784 4.47256 4.1105 4.50598 4.28359L4.6789 5.2118C4.81473 5.94458 4.44229 6.21531 3.84792 5.81475L3.01763 5.2551C2.86644 5.15284 2.61556 5.14671 2.46077 5.23654L1.5995 5.73743C0.982986 6.0954 0.626475 5.80104 0.805844 5.07942L1.03478 4.16632C1.07754 3.99563 1.02003 3.74843 0.90593 3.6202L0.225271 2.8523C-0.174035 2.40004 -0.0282521 1.96201 0.550836 1.87923L1.455 1.75065C1.60768 1.72762 1.79189 1.59502 1.86323 1.45117L2.39324 0.411201C2.67845 -0.150283 3.1197 -0.134641 3.37165 0.445142Z" fill="#E9DB64"/>
</svg>
