<svg width="42" height="8" viewBox="0 0 42 8" fill="none" xmlns="http://www.w3.org/2000/svg">
<path d="M32.9938 3.20343C33.0338 2.99381 32.8739 2.74226 32.6741 2.74226L30.3958 2.40687L29.3566 0.226792C29.3167 0.142943 29.2767 0.101019 29.1968 0.0590943C28.9969 -0.0666793 28.7571 0.0171698 28.6372 0.226792L27.638 2.40687L25.3597 2.74226C25.2398 2.74226 25.1599 2.78419 25.1199 2.86804C24.96 3.03574 24.96 3.28728 25.1199 3.45498L26.7586 5.13196L26.359 7.52166C26.359 7.60551 26.359 7.68936 26.3989 7.77321C26.5188 7.98283 26.7586 8.06668 26.9585 7.94091L28.9969 6.80894L31.0353 7.94091C31.0753 7.98283 31.1553 7.98283 31.2352 7.98283C31.2752 7.98283 31.2752 7.98283 31.3151 7.98283C31.515 7.94091 31.6749 7.73128 31.6349 7.47974L31.2352 5.09004L32.8739 3.41306C32.9539 3.37113 32.9938 3.28728 32.9938 3.20343Z" fill="#E9DB64"/>
<path d="M24.9938 3.20343C25.0338 2.99381 24.8739 2.74226 24.6741 2.74226L22.3958 2.40687L21.3566 0.226792C21.3167 0.142943 21.2767 0.101019 21.1968 0.0590943C20.9969 -0.0666793 20.7571 0.0171698 20.6372 0.226792L19.638 2.40687L17.3597 2.74226C17.2398 2.74226 17.1599 2.78419 17.1199 2.86804C16.96 3.03574 16.96 3.28728 17.1199 3.45498L18.7586 5.13196L18.359 7.52166C18.359 7.60551 18.359 7.68936 18.3989 7.77321C18.5188 7.98283 18.7586 8.06668 18.9585 7.94091L20.9969 6.80894L23.0353 7.94091C23.0753 7.98283 23.1553 7.98283 23.2352 7.98283C23.2752 7.98283 23.2752 7.98283 23.3151 7.98283C23.515 7.94091 23.6749 7.73128 23.6349 7.47974L23.2352 5.09004L24.8739 3.41306C24.9539 3.37113 24.9938 3.28728 24.9938 3.20343Z" fill="#E9DB64"/>
<path d="M15.9938 3.20343C16.0338 2.99381 15.8739 2.74226 15.6741 2.74226L13.3958 2.40687L12.3566 0.226792C12.3167 0.142943 12.2767 0.101019 12.1968 0.0590943C11.9969 -0.0666793 11.7571 0.0171698 11.6372 0.226792L10.638 2.40687L8.35972 2.74226C8.23982 2.74226 8.15988 2.78419 8.11991 2.86804C7.96003 3.03574 7.96003 3.28728 8.11991 3.45498L9.75864 5.13196L9.35895 7.52166C9.35895 7.60551 9.35895 7.68936 9.39892 7.77321C9.51883 7.98283 9.75864 8.06668 9.95849 7.94091L11.9969 6.80894L14.0353 7.94091C14.0753 7.98283 14.1553 7.98283 14.2352 7.98283C14.2752 7.98283 14.2752 7.98283 14.3151 7.98283C14.515 7.94091 14.6749 7.73128 14.6349 7.47974L14.2352 5.09004L15.8739 3.41306C15.9539 3.37113 15.9938 3.28728 15.9938 3.20343Z" fill="#E9DB64"/>
<path d="M7.99383 3.20343C8.0338 2.99381 7.87393 2.74226 7.67408 2.74226L5.39584 2.40687L4.35664 0.226792C4.31667 0.142943 4.2767 0.101019 4.19676 0.0590943C3.99692 -0.0666793 3.7571 0.0171698 3.63719 0.226792L2.63797 2.40687L0.359723 2.74226C0.239815 2.74226 0.159877 2.78419 0.119908 2.86804C-0.0399692 3.03574 -0.0399692 3.28728 0.119908 3.45498L1.75864 5.13196L1.35895 7.52166C1.35895 7.60551 1.35895 7.68936 1.39892 7.77321C1.51883 7.98283 1.75864 8.06668 1.95849 7.94091L3.99692 6.80894L6.03534 7.94091C6.07531 7.98283 6.15525 7.98283 6.23519 7.98283C6.27516 7.98283 6.27516 7.98283 6.31513 7.98283C6.51497 7.94091 6.67485 7.73128 6.63488 7.47974L6.23519 5.09004L7.87393 3.41306C7.95387 3.37113 7.99383 3.28728 7.99383 3.20343Z" fill="#E9DB64"/>
<path d="M41.9622 3.00398C41.9192 2.88028 41.8401 2.77003 41.7336 2.68543C41.6271 2.60082 41.4975 2.54517 41.359 2.52462L39.1857 2.19737L38.1782 0.383393C38.114 0.267912 38.0168 0.171042 37.8971 0.10341C37.7774 0.0357787 37.6399 0 37.4997 0C37.3595 0 37.2221 0.0357787 37.1024 0.10341C36.9827 0.171042 36.8854 0.267912 36.8213 0.383393L35.8138 2.19737L33.6405 2.52462C33.5022 2.54549 33.3727 2.60127 33.2663 2.68583C33.1599 2.7704 33.0807 2.88048 33.0374 3.00401C32.994 3.12754 32.9883 3.25974 33.0207 3.38611C33.0531 3.51247 33.1225 3.62811 33.2212 3.72035L34.7718 5.1687L34.4362 7.18491C34.4147 7.31333 34.4318 7.44477 34.4856 7.56476C34.5395 7.68476 34.628 7.78866 34.7415 7.86505C34.855 7.94144 34.989 7.98735 35.1288 7.99774C35.2686 8.00813 35.4088 7.98258 35.534 7.92392L37.4997 7.00507L39.4655 7.92392C39.5907 7.98246 39.7309 8.00791 39.8706 7.99747C40.0104 7.98703 40.1443 7.94111 40.2578 7.86475C40.3712 7.78839 40.4597 7.68454 40.5136 7.56461C40.5675 7.44468 40.5847 7.3133 40.5633 7.18491L40.2277 5.1687L41.7783 3.72035C41.8773 3.62829 41.9469 3.51265 41.9794 3.38621C42.0118 3.25978 42.0059 3.12748 41.9622 3.00398ZM41.3523 3.32885L39.5885 4.97631L39.9703 7.26971C39.975 7.29718 39.9715 7.32532 39.96 7.35102C39.9485 7.37673 39.9296 7.39899 39.9053 7.41533C39.881 7.43168 39.8523 7.44148 39.8224 7.44365C39.7925 7.44581 39.7625 7.44026 39.7358 7.4276L37.4997 6.38241L35.2637 7.42763C35.237 7.44029 35.207 7.44585 35.177 7.44368C35.1471 7.44152 35.1184 7.43172 35.0941 7.41537C35.0698 7.39902 35.0509 7.37676 35.0394 7.35106C35.028 7.32536 35.0244 7.29721 35.0291 7.26975L35.411 4.97631L33.6472 3.32884C33.6261 3.30912 33.6113 3.28441 33.6044 3.25742C33.5975 3.23043 33.5987 3.20219 33.608 3.1758C33.6172 3.14942 33.6341 3.1259 33.6569 3.10783C33.6796 3.08976 33.7072 3.07783 33.7368 3.07335L36.2088 2.70112L37.3548 0.637785C37.3685 0.613104 37.3893 0.592399 37.4148 0.577943C37.4404 0.563486 37.4698 0.555839 37.4997 0.555839C37.5297 0.555839 37.5591 0.563486 37.5846 0.577943C37.6102 0.592399 37.631 0.613104 37.6447 0.637785L38.7907 2.70112L41.2627 3.07335C41.2922 3.07783 41.3199 3.08976 41.3426 3.10783C41.3653 3.1259 41.3822 3.14942 41.3915 3.1758C41.4007 3.20219 41.402 3.23043 41.3951 3.25742C41.3881 3.28441 41.3733 3.30912 41.3523 3.32884L41.3523 3.32885Z" fill="#C1B651"/>
</svg>
