<svg width="18" height="16" viewBox="0 0 18 16" fill="none" xmlns="http://www.w3.org/2000/svg">
<path d="M17.7473 14.6511L14.4102 11.7067C15.7056 10.2699 16.3329 8.44635 16.1631 6.61085C15.9934 4.77535 15.0396 3.06745 13.4978 1.83834C11.9559 0.609226 9.94333 -0.0476794 7.87376 0.00269722C5.80419 0.0530739 3.83498 0.806903 2.37103 2.10918C0.907077 3.41146 0.0596628 5.1632 0.00303206 7.00421C-0.0535986 8.84523 0.684859 10.6356 2.06656 12.0071C3.44826 13.3787 5.36819 14.2272 7.43156 14.3781C9.49493 14.5291 11.5449 13.9711 13.16 12.8188L16.47 15.7633C16.5536 15.8383 16.6531 15.8978 16.7627 15.9385C16.8723 15.9791 16.9899 16 17.1086 16C17.2274 16 17.3449 15.9791 17.4546 15.9385C17.5642 15.8978 17.6636 15.8383 17.7473 15.7633C17.9094 15.6141 18 15.4147 18 15.2072C18 14.9997 17.9094 14.8003 17.7473 14.6511ZM8.11399 12.8188C6.8687 12.8188 5.65139 12.4903 4.61597 11.8749C3.58056 11.2595 2.77355 10.3847 2.297 9.36129C1.82045 8.33786 1.69577 7.2117 1.93871 6.12523C2.18165 5.03875 2.78131 4.04076 3.66186 3.25746C4.54241 2.47416 5.66429 1.94072 6.88565 1.72461C8.107 1.50849 9.37297 1.61941 10.5235 2.04333C11.674 2.46725 12.6573 3.18514 13.3491 4.1062C14.041 5.02727 14.4102 6.11015 14.4102 7.21791C14.4102 8.70337 13.7469 10.128 12.5661 11.1784C11.3853 12.2287 9.78386 12.8188 8.11399 12.8188Z" fill="#C1BFBF"/>
</svg>
