<svg width="92" height="19" viewBox="0 0 92 19" fill="none" xmlns="http://www.w3.org/2000/svg">
<path d="M3.82056 8.4675C3.75286 8.53722 3.69913 8.62017 3.66247 8.71157C3.6258 8.80296 3.60692 8.90099 3.60692 9C3.60692 9.09901 3.6258 9.19704 3.66247 9.28843C3.69913 9.37983 3.75286 9.46278 3.82056 9.5325L5.98722 11.7825C6.05436 11.8528 6.13424 11.9086 6.22225 11.9467C6.31026 11.9847 6.40466 12.0043 6.5 12.0043C6.59534 12.0043 6.68974 11.9847 6.77775 11.9467C6.86576 11.9086 6.94564 11.8528 7.01278 11.7825L9.17944 9.5325C9.31544 9.39127 9.39184 9.19973 9.39184 9C9.39184 8.80027 9.31544 8.60873 9.17944 8.4675C9.04345 8.32627 8.859 8.24693 8.66667 8.24693C8.47434 8.24693 8.28989 8.32627 8.15389 8.4675L7.22222 9.4425V0.75C7.22222 0.551088 7.14613 0.360322 7.01069 0.21967C6.87525 0.0790176 6.69155 0 6.5 0C6.30845 0 6.12475 0.0790176 5.98931 0.21967C5.85387 0.360322 5.77778 0.551088 5.77778 0.75V9.4425L4.84611 8.4675C4.77897 8.3972 4.69909 8.34141 4.61108 8.30333C4.52307 8.26525 4.42868 8.24565 4.33333 8.24565C4.23799 8.24565 4.14359 8.26525 4.05558 8.30333C3.96757 8.34141 3.8877 8.3972 3.82056 8.4675ZM10.8333 5.25H9.38889C9.19734 5.25 9.01364 5.32902 8.8782 5.46967C8.74276 5.61032 8.66667 5.80109 8.66667 6C8.66667 6.19891 8.74276 6.38968 8.8782 6.53033C9.01364 6.67098 9.19734 6.75 9.38889 6.75H10.8333C11.0249 6.75 11.2086 6.82902 11.344 6.96967C11.4795 7.11032 11.5556 7.30109 11.5556 7.5V12.75C11.5556 12.9489 11.4795 13.1397 11.344 13.2803C11.2086 13.421 11.0249 13.5 10.8333 13.5H2.16667C1.97512 13.5 1.79142 13.421 1.65598 13.2803C1.52054 13.1397 1.44444 12.9489 1.44444 12.75V7.5C1.44444 7.30109 1.52054 7.11032 1.65598 6.96967C1.79142 6.82902 1.97512 6.75 2.16667 6.75H3.61111C3.80266 6.75 3.98636 6.67098 4.1218 6.53033C4.25724 6.38968 4.33333 6.19891 4.33333 6C4.33333 5.80109 4.25724 5.61032 4.1218 5.46967C3.98636 5.32902 3.80266 5.25 3.61111 5.25H2.16667C1.59203 5.25 1.04093 5.48705 0.634602 5.90901C0.228273 6.33097 0 6.90326 0 7.5V12.75C0 13.3467 0.228273 13.919 0.634602 14.341C1.04093 14.7629 1.59203 15 2.16667 15H10.8333C11.408 15 11.9591 14.7629 12.3654 14.341C12.7717 13.919 13 13.3467 13 12.75V7.5C13 6.90326 12.7717 6.33097 12.3654 5.90901C11.9591 5.48705 11.408 5.25 10.8333 5.25Z" fill="#E9DDB3"/>
<path d="M24.9138 6.89655C23.9581 6.89655 23.0415 7.25621 22.3658 7.89642C21.69 8.53663 21.3103 9.40494 21.3103 10.3103C21.3103 11.2157 21.69 12.084 22.3658 12.7243C23.0415 13.3645 23.9581 13.7241 24.9138 13.7241C25.8695 13.7241 26.786 13.3645 27.4618 12.7243C28.1376 12.084 28.5172 11.2157 28.5172 10.3103C28.5172 9.40494 28.1376 8.53663 27.4618 7.89642C26.786 7.25621 25.8695 6.89655 24.9138 6.89655ZM26.5517 10.931H25.569V11.8621C25.569 12.0267 25.4999 12.1846 25.3771 12.301C25.2542 12.4174 25.0875 12.4828 24.9138 12.4828C24.74 12.4828 24.5734 12.4174 24.4505 12.301C24.3276 12.1846 24.2586 12.0267 24.2586 11.8621V10.931H23.2759C23.1021 10.931 22.9354 10.8656 22.8126 10.7492C22.6897 10.6328 22.6207 10.475 22.6207 10.3103C22.6207 10.1457 22.6897 9.98785 22.8126 9.87144C22.9354 9.75504 23.1021 9.68965 23.2759 9.68965H24.2586V8.75861C24.2586 8.594 24.3276 8.43612 24.4505 8.31972C24.5734 8.20332 24.74 8.13792 24.9138 8.13792C25.0875 8.13792 25.2542 8.20332 25.3771 8.31972C25.4999 8.43612 25.569 8.594 25.569 8.75861V9.68965H26.5517C26.7255 9.68965 26.8921 9.75504 27.015 9.87144C27.1379 9.98785 27.2069 10.1457 27.2069 10.3103C27.2069 10.475 27.1379 10.6328 27.015 10.7492C26.8921 10.8656 26.7255 10.931 26.5517 10.931Z" fill="#E9CDB3"/>
<path d="M37.6897 13.7242H28.5172" stroke="#E9CDB3" stroke-width="2" stroke-miterlimit="10"/>
<path d="M37.6896 11.2414H29.8276" stroke="#E9CDB3" stroke-width="2" stroke-miterlimit="10"/>
<path d="M37.6896 8.75861H29.8276" stroke="#E9CDB3" stroke-width="2" stroke-miterlimit="10"/>
<path d="M37.6897 6.27585H28.5172" stroke="#E9CDB3" stroke-width="2" stroke-miterlimit="10"/>
<path d="M91.3571 16C91.2443 16 91.1334 15.9653 91.0357 15.8995L87.5 13.5205L83.9643 15.8995C83.8666 15.9653 83.7557 16 83.6429 16C83.53 16 83.4192 15.9653 83.3214 15.8995C83.2237 15.8337 83.1426 15.739 83.0861 15.625C83.0297 15.511 83 15.3817 83 15.25V3.25C83.0005 2.65345 83.2039 2.0815 83.5654 1.65967C83.927 1.23784 84.4172 1.0006 84.9286 1H90.0714C90.5828 1.0006 91.073 1.23784 91.4346 1.65967C91.7961 2.0815 91.9995 2.65345 92 3.25V15.25C92 15.4489 91.9323 15.6397 91.8117 15.7803C91.6912 15.921 91.5276 16 91.3571 16Z" fill="#CA6303"/>
<path d="M68.2 2.5H65.8V1.75C65.8 1.55109 65.7157 1.36032 65.5657 1.21967C65.4157 1.07902 65.2122 1 65 1H57C56.7878 1 56.5843 1.07902 56.4343 1.21967C56.2843 1.36032 56.2 1.55109 56.2 1.75V2.5H53.8C53.5878 2.5 53.3843 2.57902 53.2343 2.71967C53.0843 2.86032 53 3.05109 53 3.25V5.5C53 6.29565 53.3371 7.05871 53.9373 7.62132C54.5374 8.18393 55.3513 8.5 56.2 8.5H57.432C58.1556 9.25686 59.1312 9.76176 60.2 9.9325V11.5H59.4C58.7635 11.5 58.153 11.7371 57.7029 12.159C57.2529 12.581 57 13.1533 57 13.75V15.25C57 15.4489 57.0843 15.6397 57.2343 15.7803C57.3843 15.921 57.5878 16 57.8 16H64.2C64.4122 16 64.6157 15.921 64.7657 15.7803C64.9157 15.6397 65 15.4489 65 15.25V13.75C65 13.1533 64.7471 12.581 64.2971 12.159C63.847 11.7371 63.2365 11.5 62.6 11.5H61.8V9.9325C62.8688 9.76176 63.8444 9.25686 64.568 8.5H65.8C66.6487 8.5 67.4626 8.18393 68.0627 7.62132C68.6629 7.05871 69 6.29565 69 5.5V3.25C69 3.05109 68.9157 2.86032 68.7657 2.71967C68.6157 2.57902 68.4122 2.5 68.2 2.5ZM56.2 7C55.7757 7 55.3687 6.84196 55.0686 6.56066C54.7686 6.27936 54.6 5.89782 54.6 5.5V4H56.2V5.5C56.2018 6.01128 56.2964 6.51854 56.48 7H56.2ZM62.6 13C62.8122 13 63.0157 13.079 63.1657 13.2197C63.3157 13.3603 63.4 13.5511 63.4 13.75V14.5H58.6V13.75C58.6 13.5511 58.6843 13.3603 58.8343 13.2197C58.9843 13.079 59.1878 13 59.4 13H62.6ZM64.2 5.5C64.2 6.29565 63.8629 7.05871 63.2627 7.62132C62.6626 8.18393 61.8487 8.5 61 8.5C60.1513 8.5 59.3374 8.18393 58.7373 7.62132C58.1371 7.05871 57.8 6.29565 57.8 5.5V2.5H64.2V5.5ZM67.4 5.5C67.4 5.89782 67.2314 6.27936 66.9314 6.56066C66.6313 6.84196 66.2243 7 65.8 7H65.52C65.7036 6.51854 65.7982 6.01128 65.8 5.5V4H67.4V5.5Z" fill="#E9CDB3"/>
</svg>
