<svg width="22" height="26" viewBox="0 0 22 26" fill="none" xmlns="http://www.w3.org/2000/svg">
<path d="M20.7777 7.82175L13.4445 0.991925C12.7722 0.353148 11.9019 0 11 0C10.0981 0 9.22786 0.353148 8.55561 0.991925L1.22233 7.82175C0.834116 8.19061 0.524323 8.64309 0.313579 9.14908C0.102835 9.65507 -0.00402421 10.2029 0.000115859 10.7562V22.1047C0.000115859 23.1378 0.386422 24.1286 1.07405 24.8591C1.76168 25.5896 2.6943 26 3.66676 26H18.3333C19.3058 26 20.2384 25.5896 20.926 24.8591C21.6137 24.1286 22 23.1378 22 22.1047V10.7433C22.0024 10.1921 21.8947 9.64677 21.684 9.14316C21.4733 8.63954 21.1644 8.18916 20.7777 7.82175ZM13.4445 23.4031H8.55561V16.9109C8.55561 16.5665 8.68438 16.2362 8.91359 15.9927C9.1428 15.7492 9.45367 15.6124 9.77782 15.6124H12.2222C12.5464 15.6124 12.8573 15.7492 13.0865 15.9927C13.3157 16.2362 13.4445 16.5665 13.4445 16.9109V23.4031ZM19.5555 22.1047C19.5555 22.449 19.4268 22.7793 19.1976 23.0228C18.9683 23.2663 18.6575 23.4031 18.3333 23.4031H15.8889V16.9109C15.8889 15.8778 15.5026 14.887 14.815 14.1565C14.1273 13.4259 13.1947 13.0155 12.2222 13.0155H9.77782C8.80537 13.0155 7.87275 13.4259 7.18512 14.1565C6.49749 14.887 6.11118 15.8778 6.11118 16.9109V23.4031H3.66676C3.34261 23.4031 3.03173 23.2663 2.80252 23.0228C2.57331 22.7793 2.44454 22.449 2.44454 22.1047V10.7433C2.44476 10.5589 2.48193 10.3767 2.55359 10.2088C2.62524 10.0409 2.72972 9.8911 2.8601 9.76942L10.1934 2.95258C10.4164 2.74441 10.7032 2.62961 11 2.62961C11.2969 2.62961 11.5837 2.74441 11.8067 2.95258L19.14 9.76942C19.2704 9.8911 19.3748 10.0409 19.4465 10.2088C19.5181 10.3767 19.5553 10.5589 19.5555 10.7433V22.1047Z" fill="#E9CDB3"/>
</svg>
