<svg width="20" height="15" viewBox="0 0 20 15" fill="none" xmlns="http://www.w3.org/2000/svg">
<g clip-path="url(#clip0_66_2)">
<path d="M10.709 13.5059L9.83984 12.854L7.76562 11.2984L5.24609 9.4087L3.08008 7.78419C2.72852 7.52052 2.38281 7.25392 2.02539 6.99318L2.00977 6.98146V8.0171L2.87891 7.36525L4.95312 5.80958L7.47266 3.91993L9.63867 2.29542C9.99023 2.03175 10.3457 1.77101 10.6934 1.50441L10.709 1.49269C10.8867 1.35939 10.9941 1.1631 10.9941 0.974134C10.9941 0.793959 10.8887 0.580091 10.709 0.45558C10.5234 0.328138 10.2793 0.232923 10.0176 0.241712C9.75781 0.250502 9.51367 0.31642 9.32617 0.45558L8.45703 1.10744L6.38281 2.6631L3.86328 4.55275L1.69727 6.17726C1.3457 6.44093 0.990234 6.70167 0.642578 6.96827L0.626953 6.97999C0.253906 7.25978 0.253906 7.73585 0.626953 8.01564C0.917969 8.23536 1.20898 8.45216 1.49805 8.67042L3.57227 10.2261L6.0918 12.1157L8.25781 13.7402C8.60938 14.0039 8.95703 14.2705 9.3125 14.5313L9.32812 14.543C9.50586 14.6763 9.76758 14.7568 10.0195 14.7568C10.2598 14.7568 10.5449 14.6777 10.7109 14.543C10.8809 14.4038 11.0078 14.2207 10.9961 14.0244C10.9824 13.8296 10.8965 13.6465 10.709 13.5059Z" fill="white"/>
<path d="M1.31446 8.2324H17.9785C18.2031 8.2324 18.4297 8.23387 18.6543 8.2324H18.6836C18.9336 8.2324 19.1973 8.15037 19.375 8.01853C19.5449 7.89109 19.6719 7.68309 19.6602 7.49998C19.6484 7.31101 19.5664 7.11473 19.375 6.98143C19.1836 6.84959 18.9492 6.76756 18.6836 6.76756H2.01953C1.79492 6.76756 1.56836 6.76609 1.34375 6.76756H1.31446C1.06446 6.76756 0.800784 6.84959 0.623049 6.98143C0.453127 7.10887 0.326174 7.31687 0.337893 7.49998C0.349612 7.68894 0.431643 7.88523 0.623049 8.01853C0.816409 8.14891 1.05078 8.2324 1.31446 8.2324Z" fill="white"/>
</g>
<defs>
<clipPath id="clip0_66_2">
<rect width="20" height="15" fill="white"/>
</clipPath>
</defs>
</svg>
