<svg width="9" height="13" viewBox="0 0 9 13" fill="none" xmlns="http://www.w3.org/2000/svg">
<path d="M8.35714 13C8.2443 13 8.13344 12.97 8.03571 12.9129L4.5 10.8511L0.964286 12.9129C0.86656 12.9699 0.755705 13 0.642861 13C0.530017 13 0.419162 12.97 0.321436 12.9129C0.223709 12.8559 0.142556 12.7738 0.0861326 12.675C0.029709 12.5762 2.86663e-06 12.4641 0 12.35V1.95C0.000510567 1.43299 0.203863 0.937296 0.565429 0.571712C0.926996 0.206128 1.41724 0.00051624 1.92857 0H7.07143C7.58276 0.00051624 8.073 0.206128 8.43457 0.571712C8.79614 0.937296 8.99949 1.43299 9 1.95V12.35C9 12.5224 8.93227 12.6877 8.81171 12.8096C8.69115 12.9315 8.52764 13 8.35714 13Z" fill="#CA6303"/>
</svg>
