<svg width="16" height="26" viewBox="0 0 16 26" fill="none" xmlns="http://www.w3.org/2000/svg">
<path d="M14.8765 20.79L13.5865 19.5V14.5C13.5865 11.43 11.9465 8.86 9.08648 8.18V7.5C9.08648 6.67 8.41648 6 7.58648 6C6.75648 6 6.08648 6.67 6.08648 7.5V8.18C3.21648 8.86 1.58648 11.42 1.58648 14.5V19.5L0.296477 20.79C-0.333523 21.42 0.106477 22.5 0.996477 22.5H14.1665C15.0665 22.5 15.5065 21.42 14.8765 20.79ZM11.5865 20.5H3.58648V14.5C3.58648 12.02 5.09648 10 7.58648 10C10.0765 10 11.5865 12.02 11.5865 14.5V20.5ZM7.58648 25.5C8.68648 25.5 9.58648 24.6 9.58648 23.5H5.58648C5.58648 24.6 6.47648 25.5 7.58648 25.5Z" fill="white"/>
<ellipse cx="12.5" cy="4" rx="3.5" ry="4" fill="#E20808"/>
</svg>
